<svg width="42" height="44" viewBox="0 0 42 44" fill="none" xmlns="http://www.w3.org/2000/svg">
<path fill-rule="evenodd" clip-rule="evenodd" d="M38.6018 20.6172C36.8771 20.9827 36.3468 19.4815 34.9122 18.5312C33.4731 17.5799 32.1533 17.216 30.8212 15.8872C30.2862 15.3509 30.1494 14.4366 29.6171 13.8762C28.9083 13.1197 28.4763 12.9132 27.5139 12.5355C25.8249 11.8778 24.3749 11.3901 22.9713 10.2308C22.734 10.0372 22.1761 9.77961 21.6554 9.68257C21.4322 9.63417 21.3334 9.6704 21.2581 9.75528C21.049 10.0251 20.8575 10.3519 20.6712 10.6582C20.6199 10.7426 20.447 10.9878 20.3065 11.1208C20.0358 11.3655 19.6966 11.6812 19.4368 11.8266C18.025 12.6931 16.1641 13.4252 15.3607 14.8756C15.2116 15.1419 13.6712 15.8629 13.316 16.1416C12.7559 16.6047 12.2069 17.0562 11.6317 17.4826C11.0931 17.8856 10.3482 18.5066 9.78713 18.9213C9.49035 18.8123 9.18664 18.7153 8.90646 18.6667C8.24503 18.5312 7.68914 18.0194 7.12036 17.6794C6.3913 17.216 6.44605 17.1679 6.21591 17.0321C6.01451 16.9229 5.91542 16.8502 5.83764 16.814C5.29512 16.4955 5.26267 16.814 4.49323 17.2887C3.85187 17.6794 3.11241 18.3368 2.56048 18.8607C2.12101 19.2755 1.67362 19.7145 1.21434 20.1657C1.87304 10.1943 10.2739 2.32161 20.5466 2.32161C30.7147 2.32161 39.0492 10.0489 39.8523 19.8719C39.539 20.2871 39.0945 20.508 38.6018 20.6172ZM20.5327 0C9.19288 0 0 9.19475 0 20.536C0 25.2619 1.59794 29.598 4.27779 33.0694L4.83945 32.6061C3.34764 30.5848 2.24714 28.2702 1.64704 25.7495C1.82013 25.786 2.02942 25.8465 2.37484 25.9554C3.51577 26.3217 5.66769 27.0262 7.21727 26.3217C8.20222 25.8584 9.91671 25.4802 10.5756 25.2257C11.1982 24.9688 12.5137 25.5407 10.9607 24.5177H10.953C10.9332 24.506 10.9089 24.4936 10.8736 24.4815C10.8223 24.4574 10.7717 24.4453 10.7137 24.4329C10.5617 24.3967 9.31637 24.6392 9.04087 24.603C8.95433 24.5789 8.872 24.5541 8.78967 24.506C8.11419 24.1402 10.9971 21.8886 11.0921 21.3256C10.2644 21.4134 9.5817 21.9367 8.84125 22.2641C7.97136 22.6423 7.01617 22.6544 6.08428 22.6663C5.01799 22.6663 4.18877 23.4952 3.25143 23.8736C2.76119 24.0797 1.95701 24.2635 1.41444 24.6151C1.37477 24.3848 1.33931 24.1524 1.30905 23.922C1.32641 23.5195 1.36931 23.0319 1.469 22.4724C1.6825 21.2532 2.17671 20.3033 3.27747 18.8419C3.27747 18.8419 4.35045 17.5522 4.97509 17.1378C5.21861 16.9662 5.48171 16.7361 5.74009 16.893C6.01336 17.0652 5.66471 18.1241 6.39648 18.3062C6.83812 18.4031 6.44855 19.135 6.60106 19.5613C6.76274 20.0122 4.77994 21.7529 5.30341 21.9608C5.59429 22.0823 6.90855 21.4134 7.60535 21.1927C8.22033 20.9987 8.87473 20.9866 9.54847 20.352C10.2421 19.7066 10.9299 19.3411 10.9299 19.3411C11.4938 18.8659 12.0418 18.3791 12.5988 17.9037C13.1419 17.4282 13.6611 16.9417 14.1873 16.4543C14.5166 16.1394 16.006 15.3103 16.1379 15.0293C16.831 13.5316 18.6397 12.6539 19.9849 11.7041C20.2319 11.5339 20.4995 11.1684 20.6515 10.9623C20.8042 10.7542 20.9652 10.4392 21.0537 10.3395C21.2243 10.1453 21.2672 10 21.4586 9.9033C21.535 9.86436 21.839 9.86436 21.9697 10.0124C22.4084 10.4754 23.005 10.8775 23.0266 11.3643C23.0635 12.1185 25.1758 12.7772 25.6571 13.362C25.8555 13.6045 25.9713 13.8364 26.0536 14.067C25.6846 13.9212 25.3218 13.7397 25 13.5075C24.7867 13.3496 24.2898 13.386 24.0351 13.3496C23.3053 13.2139 23.4744 13.5557 23.8779 13.9701C24.2912 14.4085 24.7716 14.7743 25.1487 15.25C25.5847 15.7857 25.5445 16.2244 25.6615 16.869C25.791 17.5522 26.1994 18.1489 26.5344 18.757C26.8749 19.3651 26.8511 20.0122 27.0395 20.6694C27.2436 21.3256 27.8026 21.8762 28.2663 22.3633C28.661 22.7757 29.5607 23.7888 30.0519 23.5683C30.5744 23.3501 31.2229 23.9825 31.418 23.8007C31.6156 23.6288 30.8953 22.7879 31.171 22.5332C31.4485 22.276 32.648 22.6787 32.8949 23.4468C33.1747 24.3485 33.1456 24.4212 33.1013 25.0658C33.071 25.4921 32.9039 25.8343 32.6175 26.1371C32.2614 26.491 31.4361 27.0872 31.5988 27.6859C32.3554 27.2837 33.1789 27.2475 34.024 27.2715C34.8428 27.2958 35.4471 26.9538 35.9954 26.3703C36.2379 26.1131 36.9347 25.2984 37.3309 25.7131C37.5715 25.9554 36.8677 26.9538 37.6399 26.748C38.154 26.6126 38.6122 26.2123 39.0782 25.9554C39.2026 25.8824 39.3175 25.81 39.4164 25.7374C38.8084 28.2945 37.6833 30.6573 36.1536 32.7031L36.7155 33.1658C39.4343 29.6831 41.0667 25.2984 41.0667 20.536C41.0667 9.19475 31.8703 0 20.5327 0ZM13.2059 32.6648C13.174 32.8809 12.8723 34.7506 12.5428 36.8141C11.9383 36.6793 11.3363 36.4514 10.6619 36.077C9.98996 35.703 9.48067 35.319 9.05233 34.8729C10.6271 33.4974 12.049 32.2551 12.2249 32.1104C12.6498 31.7485 12.8573 31.6643 13.0548 31.7726C13.2489 31.8804 13.2901 32.1104 13.2059 32.6648ZM14.3247 29.6593C14.3247 29.6593 14.275 29.6232 14.2171 29.5964C14.1626 29.5722 14.1216 29.5479 14.1169 29.5358C14.1196 29.5479 14.1216 29.5479 14.1216 29.5479C13.1583 29.0136 12.2058 29.0383 11.1112 29.8409C9.59918 30.9336 2.31828 37.0942 2.31828 37.0942L4.41939 38.8809C4.41939 38.8809 5.58673 37.8606 7.01732 36.6204C7.71951 37.2391 8.50829 37.8002 9.39604 38.2978C10.2769 38.7842 11.1762 39.1592 12.0692 39.415C11.7656 41.299 11.5192 42.8294 11.5192 42.8294L14.1409 43.6683C14.1409 43.6683 15.5314 34.2268 15.663 32.3676C15.7632 31.0185 15.2802 30.1932 14.3247 29.6593ZM19.0982 44H21.8581V30.5126H19.0982V44ZM30.1761 36.0893C29.4986 36.4635 28.8958 36.6793 28.2953 36.8141C27.9696 34.7506 27.6775 32.8809 27.6375 32.6648C27.5573 32.1104 27.5969 31.8924 27.7945 31.7726C27.9868 31.6643 28.1987 31.7485 28.6185 32.1104C28.7997 32.2668 30.2235 33.5095 31.7935 34.8844C31.3631 35.319 30.8533 35.7148 30.1761 36.0893ZM26.6273 29.5379C26.623 29.55 26.5792 29.5743 26.5208 29.5985C26.4654 29.6252 26.4253 29.6495 26.4253 29.6495C25.4671 30.1835 24.9751 31.008 25.0714 32.3569C25.2068 34.2282 26.5792 43.6683 26.5792 43.6683L29.2052 42.8295C29.2052 42.8295 28.9627 41.2993 28.6637 39.428C29.5571 39.1599 30.4557 38.7849 31.3446 38.2986C32.2246 37.813 33.0175 37.2401 33.7137 36.6214C35.1448 37.8736 36.3159 38.9061 36.3159 38.9061L38.4172 37.1196C38.4172 37.1196 31.1459 30.9355 29.6363 29.8429C28.5459 29.0405 27.5892 29.0157 26.6273 29.5379ZM24.209 24.6479C23.9762 24.442 23.4805 23.9922 23.2281 23.225C22.9876 22.4973 22.623 21.9138 22.0114 21.4402C20.9242 20.5884 18.3497 19.2992 18.5276 17.5594C18.6078 16.7831 19.5452 16.6232 19.9279 16.0526C20.161 15.7258 20.1932 15.2758 20.4679 14.9706C20.7765 14.6176 20.3433 14.6176 20.0403 14.5936C19.3928 14.5695 18.9095 15.2758 18.3713 15.5662C17.4899 16.0283 16.6968 16.6861 15.7037 16.9037C15.4119 16.9643 13.9274 17.4265 14.8959 17.6711C15.5585 17.8399 16.3014 17.7921 16.8503 18.2662C17.5561 18.8729 18.1302 19.6519 18.8392 20.2594C19.1981 20.5644 19.5479 20.8548 19.8399 21.2318C20.1773 21.67 20.1337 22.1683 20.3832 22.6183C20.6244 23.0557 21.0991 22.6666 21.3953 22.9104C22.3644 23.7115 21.0166 24.1009 20.6688 24.4781C20.214 24.9772 20.1258 25.2938 19.2925 25.6324C18.9247 25.7802 16.536 26.0704 16.2449 26.2907C15.9499 26.5085 16.105 26.581 16.1808 26.666C16.2588 26.7528 16.6678 26.8858 16.8503 26.8977C17.8538 26.9944 20.9408 27.5777 21.5737 26.789C22.0057 26.2424 22.6472 26.1793 23.3587 26.3756C23.859 26.5085 24.8506 26.412 25.7117 26.0585C26.2091 25.8528 27.5863 25.8404 27.1999 25.6324C26.7253 24.7083 25.0557 25.4267 24.209 24.6479Z" fill="#D31145"/>
</svg>
