<svg width="750" height="384" viewBox="0 0 750 384" fill="none" xmlns="http://www.w3.org/2000/svg">
<g clip-path="url(#clip0_6_16814)">
<rect width="750" height="384" rx="16" fill="white"/>
<path fill-rule="evenodd" clip-rule="evenodd" d="M354.036 112.163C354.544 105.054 360.247 99.4278 367.357 99.021C373.665 98.66 379.425 102.522 381.517 108.43L381.58 108.619L381.714 108.564C384.531 107.444 387.713 107.704 390.313 109.265L390.793 109.573L391.152 109.83C394.501 112.349 395.863 116.731 394.533 120.706C393.25 124.54 389.735 127.179 385.704 127.344L385.292 127.352H383.391C382.566 127.352 381.898 126.683 381.898 125.858C381.898 125.109 382.453 124.478 383.204 124.377L383.391 124.365L385.294 124.365C388.198 124.37 390.78 122.514 391.702 119.758C392.624 117.002 391.68 113.965 389.358 112.218C387.037 110.472 383.859 110.409 381.47 112.062C380.581 112.677 379.354 112.172 379.154 111.109C378.117 105.581 373.139 101.683 367.528 102.004C361.916 102.325 357.415 106.765 357.014 112.376C356.613 117.987 360.436 123.023 365.945 124.141C366.753 124.305 367.275 125.093 367.111 125.902C366.948 126.71 366.16 127.233 365.352 127.069C358.372 125.653 353.528 119.272 354.036 112.163ZM374.486 125.219L374.239 125.217L373.996 125.255L373.784 125.325L373.565 125.437C373.473 125.495 373.386 125.564 373.305 125.645L373.327 125.627L368.185 130.771L368.042 130.937C367.614 131.515 367.661 132.335 368.185 132.859L368.35 133.002C368.928 133.431 369.747 133.383 370.271 132.859L372.873 130.251L372.873 139.524L372.887 139.724C372.985 140.445 373.602 141 374.35 141C375.165 141 375.826 140.339 375.826 139.524L375.825 130.254L378.426 132.859L378.592 133.002C379.169 133.431 379.989 133.383 380.512 132.859C381.088 132.282 381.088 131.348 380.512 130.771L375.301 125.56C375.215 125.488 375.122 125.425 375.021 125.374L374.86 125.303L374.695 125.253L374.486 125.219Z" fill="#858B91"/>
<path d="M235.434 168.008C234.887 168.008 234.398 168.107 233.966 168.305C233.539 168.503 233.177 168.789 232.88 169.164C232.583 169.534 232.356 169.984 232.2 170.516C232.044 171.042 231.966 171.635 231.966 172.297C231.966 173.182 232.091 173.945 232.341 174.586C232.591 175.221 232.971 175.711 233.481 176.055C233.992 176.393 234.637 176.562 235.419 176.562C235.903 176.562 236.374 176.516 236.833 176.422C237.291 176.328 237.765 176.201 238.255 176.039V177.633C237.791 177.815 237.322 177.948 236.848 178.031C236.374 178.115 235.828 178.156 235.208 178.156C234.041 178.156 233.072 177.914 232.302 177.43C231.536 176.945 230.963 176.263 230.583 175.383C230.208 174.503 230.02 173.471 230.02 172.289C230.02 171.424 230.14 170.633 230.38 169.914C230.619 169.195 230.968 168.576 231.427 168.055C231.885 167.529 232.45 167.125 233.122 166.844C233.799 166.557 234.572 166.414 235.442 166.414C236.015 166.414 236.578 166.479 237.13 166.609C237.687 166.734 238.203 166.914 238.677 167.148L238.02 168.695C237.624 168.508 237.21 168.346 236.778 168.211C236.346 168.076 235.898 168.008 235.434 168.008ZM242.464 178H240.62V165.844H242.464V178ZM247.025 169.352V178H245.189V169.352H247.025ZM246.119 166.039C246.4 166.039 246.642 166.115 246.845 166.266C247.054 166.417 247.158 166.677 247.158 167.047C247.158 167.411 247.054 167.672 246.845 167.828C246.642 167.979 246.4 168.055 246.119 168.055C245.827 168.055 245.58 167.979 245.377 167.828C245.179 167.672 245.08 167.411 245.08 167.047C245.08 166.677 245.179 166.417 245.377 166.266C245.58 166.115 245.827 166.039 246.119 166.039ZM253.242 178.156C252.424 178.156 251.716 177.997 251.117 177.68C250.518 177.362 250.057 176.875 249.734 176.219C249.411 175.562 249.25 174.729 249.25 173.719C249.25 172.667 249.427 171.807 249.781 171.141C250.135 170.474 250.625 169.982 251.25 169.664C251.88 169.346 252.602 169.188 253.414 169.188C253.93 169.188 254.396 169.24 254.812 169.344C255.234 169.443 255.591 169.565 255.883 169.711L255.336 171.18C255.018 171.049 254.693 170.94 254.359 170.852C254.026 170.763 253.706 170.719 253.398 170.719C252.893 170.719 252.471 170.831 252.133 171.055C251.799 171.279 251.549 171.612 251.383 172.055C251.221 172.497 251.141 173.047 251.141 173.703C251.141 174.339 251.224 174.875 251.391 175.312C251.557 175.745 251.805 176.073 252.133 176.297C252.461 176.516 252.865 176.625 253.344 176.625C253.818 176.625 254.242 176.568 254.617 176.453C254.992 176.339 255.346 176.19 255.68 176.008V177.602C255.352 177.789 255 177.927 254.625 178.016C254.25 178.109 253.789 178.156 253.242 178.156ZM259.647 165.844V171.719C259.647 171.984 259.636 172.276 259.616 172.594C259.595 172.906 259.574 173.201 259.553 173.477H259.592C259.728 173.294 259.889 173.081 260.077 172.836C260.269 172.591 260.452 172.378 260.623 172.195L263.264 169.352H265.373L261.912 173.07L265.6 178H263.444L260.678 174.203L259.647 175.086V178H257.811V165.844H259.647ZM273.175 165.844V168.898C273.175 169.216 273.165 169.526 273.144 169.828C273.128 170.13 273.11 170.365 273.089 170.531H273.191C273.373 170.229 273.597 169.982 273.862 169.789C274.128 169.591 274.425 169.443 274.753 169.344C275.086 169.245 275.441 169.195 275.816 169.195C276.477 169.195 277.04 169.307 277.503 169.531C277.967 169.75 278.321 170.091 278.566 170.555C278.816 171.018 278.941 171.62 278.941 172.359V178H277.105V172.703C277.105 172.031 276.967 171.529 276.691 171.195C276.415 170.857 275.987 170.688 275.409 170.688C274.852 170.688 274.409 170.805 274.081 171.039C273.758 171.268 273.527 171.609 273.386 172.062C273.245 172.51 273.175 173.057 273.175 173.703V178H271.339V165.844H273.175ZM285.056 169.188C285.827 169.188 286.489 169.346 287.041 169.664C287.593 169.982 288.017 170.432 288.314 171.016C288.611 171.599 288.759 172.297 288.759 173.109V174.094H282.986C283.007 174.932 283.231 175.578 283.658 176.031C284.09 176.484 284.694 176.711 285.47 176.711C286.022 176.711 286.517 176.659 286.955 176.555C287.397 176.445 287.853 176.286 288.322 176.078V177.57C287.89 177.773 287.449 177.922 287.002 178.016C286.554 178.109 286.017 178.156 285.392 178.156C284.543 178.156 283.796 177.992 283.15 177.664C282.509 177.331 282.007 176.836 281.642 176.18C281.283 175.523 281.103 174.708 281.103 173.734C281.103 172.766 281.267 171.943 281.595 171.266C281.923 170.589 282.384 170.073 282.978 169.719C283.572 169.365 284.265 169.188 285.056 169.188ZM285.056 170.57C284.478 170.57 284.009 170.758 283.65 171.133C283.296 171.508 283.087 172.057 283.025 172.781H286.962C286.957 172.349 286.884 171.966 286.744 171.633C286.608 171.299 286.4 171.039 286.119 170.852C285.843 170.664 285.489 170.57 285.056 170.57ZM295.312 169.188C295.458 169.188 295.617 169.195 295.789 169.211C295.961 169.227 296.109 169.247 296.234 169.273L296.062 170.992C295.953 170.961 295.818 170.938 295.656 170.922C295.5 170.906 295.359 170.898 295.234 170.898C294.906 170.898 294.594 170.953 294.297 171.062C294 171.167 293.737 171.328 293.508 171.547C293.279 171.76 293.099 172.029 292.969 172.352C292.839 172.674 292.773 173.049 292.773 173.477V178H290.93V169.352H292.367L292.617 170.875H292.703C292.875 170.568 293.089 170.286 293.344 170.031C293.599 169.776 293.891 169.573 294.219 169.422C294.552 169.266 294.917 169.188 295.312 169.188ZM301.381 169.188C302.152 169.188 302.814 169.346 303.366 169.664C303.918 169.982 304.342 170.432 304.639 171.016C304.936 171.599 305.084 172.297 305.084 173.109V174.094H299.311C299.332 174.932 299.556 175.578 299.983 176.031C300.415 176.484 301.019 176.711 301.795 176.711C302.347 176.711 302.842 176.659 303.28 176.555C303.722 176.445 304.178 176.286 304.647 176.078V177.57C304.215 177.773 303.774 177.922 303.327 178.016C302.879 178.109 302.342 178.156 301.717 178.156C300.868 178.156 300.121 177.992 299.475 177.664C298.834 177.331 298.332 176.836 297.967 176.18C297.608 175.523 297.428 174.708 297.428 173.734C297.428 172.766 297.592 171.943 297.92 171.266C298.248 170.589 298.709 170.073 299.303 169.719C299.897 169.365 300.59 169.188 301.381 169.188ZM301.381 170.57C300.803 170.57 300.334 170.758 299.975 171.133C299.621 171.508 299.413 172.057 299.35 172.781H303.288C303.282 172.349 303.209 171.966 303.069 171.633C302.933 171.299 302.725 171.039 302.444 170.852C302.168 170.664 301.814 170.57 301.381 170.57ZM314.73 176.672C314.969 176.672 315.206 176.651 315.441 176.609C315.675 176.562 315.889 176.508 316.081 176.445V177.836C315.878 177.924 315.615 178 315.292 178.062C314.969 178.125 314.633 178.156 314.284 178.156C313.795 178.156 313.355 178.076 312.964 177.914C312.573 177.747 312.264 177.464 312.034 177.062C311.805 176.661 311.691 176.107 311.691 175.398V170.75H310.511V169.93L311.777 169.281L312.378 167.43H313.534V169.352H316.011V170.75H313.534V175.375C313.534 175.812 313.644 176.138 313.862 176.352C314.081 176.565 314.37 176.672 314.73 176.672ZM325.595 173.656C325.595 174.375 325.502 175.013 325.314 175.57C325.127 176.128 324.853 176.599 324.494 176.984C324.134 177.365 323.702 177.656 323.197 177.859C322.692 178.057 322.121 178.156 321.486 178.156C320.892 178.156 320.348 178.057 319.853 177.859C319.358 177.656 318.929 177.365 318.564 176.984C318.205 176.599 317.926 176.128 317.728 175.57C317.53 175.013 317.431 174.375 317.431 173.656C317.431 172.703 317.595 171.896 317.923 171.234C318.257 170.568 318.731 170.06 319.345 169.711C319.96 169.362 320.692 169.188 321.541 169.188C322.337 169.188 323.041 169.362 323.65 169.711C324.259 170.06 324.736 170.568 325.08 171.234C325.423 171.901 325.595 172.708 325.595 173.656ZM319.322 173.656C319.322 174.286 319.397 174.826 319.548 175.273C319.705 175.721 319.944 176.065 320.267 176.305C320.59 176.539 321.007 176.656 321.517 176.656C322.028 176.656 322.444 176.539 322.767 176.305C323.09 176.065 323.327 175.721 323.478 175.273C323.629 174.826 323.705 174.286 323.705 173.656C323.705 173.026 323.629 172.492 323.478 172.055C323.327 171.612 323.09 171.276 322.767 171.047C322.444 170.812 322.025 170.695 321.509 170.695C320.749 170.695 320.194 170.951 319.845 171.461C319.496 171.971 319.322 172.703 319.322 173.656ZM339.6 169.352V178H338.155L337.905 176.836H337.803C337.621 177.133 337.389 177.38 337.108 177.578C336.827 177.771 336.514 177.914 336.17 178.008C335.827 178.107 335.465 178.156 335.084 178.156C334.433 178.156 333.876 178.047 333.413 177.828C332.954 177.604 332.603 177.26 332.358 176.797C332.113 176.333 331.991 175.734 331.991 175V169.352H333.834V174.656C333.834 175.328 333.97 175.831 334.241 176.164C334.517 176.497 334.944 176.664 335.522 176.664C336.079 176.664 336.522 176.549 336.85 176.32C337.178 176.091 337.41 175.753 337.545 175.305C337.686 174.857 337.756 174.307 337.756 173.656V169.352H339.6ZM346.77 169.188C347.796 169.188 348.619 169.562 349.239 170.312C349.864 171.062 350.177 172.177 350.177 173.656C350.177 174.635 350.031 175.461 349.739 176.133C349.453 176.799 349.049 177.305 348.528 177.648C348.013 177.987 347.411 178.156 346.723 178.156C346.286 178.156 345.906 178.099 345.583 177.984C345.26 177.87 344.984 177.721 344.755 177.539C344.526 177.352 344.333 177.148 344.177 176.93H344.067C344.093 177.138 344.117 177.37 344.138 177.625C344.164 177.875 344.177 178.104 344.177 178.312V181.836H342.333V169.352H343.833L344.091 170.547H344.177C344.338 170.302 344.533 170.076 344.763 169.867C344.997 169.659 345.278 169.495 345.606 169.375C345.94 169.25 346.328 169.188 346.77 169.188ZM346.278 170.688C345.773 170.688 345.367 170.789 345.059 170.992C344.757 171.19 344.536 171.49 344.395 171.891C344.26 172.292 344.187 172.794 344.177 173.398V173.656C344.177 174.297 344.242 174.841 344.372 175.289C344.507 175.732 344.729 176.07 345.036 176.305C345.348 176.534 345.77 176.648 346.302 176.648C346.749 176.648 347.119 176.526 347.411 176.281C347.708 176.036 347.929 175.688 348.075 175.234C348.221 174.781 348.294 174.247 348.294 173.633C348.294 172.701 348.127 171.977 347.794 171.461C347.466 170.945 346.96 170.688 346.278 170.688ZM354.245 178H352.402V165.844H354.245V178ZM364.627 173.656C364.627 174.375 364.533 175.013 364.345 175.57C364.158 176.128 363.884 176.599 363.525 176.984C363.166 177.365 362.733 177.656 362.228 177.859C361.723 178.057 361.153 178.156 360.517 178.156C359.923 178.156 359.379 178.057 358.884 177.859C358.39 177.656 357.96 177.365 357.595 176.984C357.236 176.599 356.957 176.128 356.759 175.57C356.561 175.013 356.462 174.375 356.462 173.656C356.462 172.703 356.627 171.896 356.955 171.234C357.288 170.568 357.762 170.06 358.377 169.711C358.991 169.362 359.723 169.188 360.572 169.188C361.369 169.188 362.072 169.362 362.681 169.711C363.291 170.06 363.767 170.568 364.111 171.234C364.455 171.901 364.627 172.708 364.627 173.656ZM358.353 173.656C358.353 174.286 358.429 174.826 358.58 175.273C358.736 175.721 358.976 176.065 359.298 176.305C359.621 176.539 360.038 176.656 360.548 176.656C361.059 176.656 361.476 176.539 361.798 176.305C362.121 176.065 362.358 175.721 362.509 175.273C362.66 174.826 362.736 174.286 362.736 173.656C362.736 173.026 362.66 172.492 362.509 172.055C362.358 171.612 362.121 171.276 361.798 171.047C361.476 170.812 361.056 170.695 360.541 170.695C359.78 170.695 359.226 170.951 358.877 171.461C358.528 171.971 358.353 172.703 358.353 173.656ZM370.227 169.188C371.32 169.188 372.146 169.43 372.703 169.914C373.266 170.398 373.547 171.154 373.547 172.18V178H372.242L371.891 176.773H371.828C371.583 177.086 371.331 177.344 371.07 177.547C370.81 177.75 370.508 177.901 370.164 178C369.826 178.104 369.411 178.156 368.922 178.156C368.406 178.156 367.945 178.062 367.539 177.875C367.133 177.682 366.812 177.391 366.578 177C366.344 176.609 366.227 176.115 366.227 175.516C366.227 174.625 366.557 173.956 367.219 173.508C367.885 173.06 368.891 172.812 370.234 172.766L371.734 172.711V172.258C371.734 171.659 371.594 171.232 371.312 170.977C371.036 170.721 370.646 170.594 370.141 170.594C369.708 170.594 369.289 170.656 368.883 170.781C368.477 170.906 368.081 171.06 367.695 171.242L367.102 169.945C367.523 169.721 368.003 169.539 368.539 169.398C369.081 169.258 369.643 169.188 370.227 169.188ZM371.727 173.867L370.609 173.906C369.693 173.938 369.049 174.094 368.68 174.375C368.31 174.656 368.125 175.042 368.125 175.531C368.125 175.958 368.253 176.271 368.508 176.469C368.763 176.661 369.099 176.758 369.516 176.758C370.151 176.758 370.677 176.578 371.094 176.219C371.516 175.854 371.727 175.32 371.727 174.617V173.867ZM379.123 178.156C378.092 178.156 377.264 177.781 376.639 177.031C376.019 176.276 375.709 175.164 375.709 173.695C375.709 172.211 376.024 171.089 376.655 170.328C377.29 169.568 378.126 169.188 379.162 169.188C379.6 169.188 379.983 169.247 380.311 169.367C380.639 169.482 380.92 169.638 381.155 169.836C381.394 170.034 381.597 170.255 381.764 170.5H381.85C381.824 170.339 381.793 170.107 381.756 169.805C381.725 169.497 381.709 169.214 381.709 168.953V165.844H383.553V178H382.116L381.787 176.82H381.709C381.553 177.07 381.355 177.297 381.116 177.5C380.881 177.698 380.6 177.857 380.272 177.977C379.949 178.096 379.566 178.156 379.123 178.156ZM379.639 176.664C380.425 176.664 380.98 176.438 381.303 175.984C381.626 175.531 381.793 174.852 381.803 173.945V173.703C381.803 172.734 381.647 171.992 381.334 171.477C381.022 170.956 380.452 170.695 379.623 170.695C378.962 170.695 378.457 170.964 378.108 171.5C377.764 172.031 377.592 172.773 377.592 173.727C377.592 174.68 377.764 175.409 378.108 175.914C378.457 176.414 378.967 176.664 379.639 176.664ZM398.198 173.656C398.198 174.375 398.105 175.013 397.917 175.57C397.73 176.128 397.456 176.599 397.097 176.984C396.737 177.365 396.305 177.656 395.8 177.859C395.295 178.057 394.724 178.156 394.089 178.156C393.495 178.156 392.951 178.057 392.456 177.859C391.961 177.656 391.532 177.365 391.167 176.984C390.808 176.599 390.529 176.128 390.331 175.57C390.133 175.013 390.034 174.375 390.034 173.656C390.034 172.703 390.198 171.896 390.527 171.234C390.86 170.568 391.334 170.06 391.948 169.711C392.563 169.362 393.295 169.188 394.144 169.188C394.941 169.188 395.644 169.362 396.253 169.711C396.862 170.06 397.339 170.568 397.683 171.234C398.027 171.901 398.198 172.708 398.198 173.656ZM391.925 173.656C391.925 174.286 392.001 174.826 392.152 175.273C392.308 175.721 392.547 176.065 392.87 176.305C393.193 176.539 393.61 176.656 394.12 176.656C394.631 176.656 395.047 176.539 395.37 176.305C395.693 176.065 395.93 175.721 396.081 175.273C396.232 174.826 396.308 174.286 396.308 173.656C396.308 173.026 396.232 172.492 396.081 172.055C395.93 171.612 395.693 171.276 395.37 171.047C395.047 170.812 394.628 170.695 394.112 170.695C393.352 170.695 392.797 170.951 392.448 171.461C392.099 171.971 391.925 172.703 391.925 173.656ZM404.791 169.188C404.936 169.188 405.095 169.195 405.267 169.211C405.439 169.227 405.587 169.247 405.712 169.273L405.541 170.992C405.431 170.961 405.296 170.938 405.134 170.922C404.978 170.906 404.837 170.898 404.712 170.898C404.384 170.898 404.072 170.953 403.775 171.062C403.478 171.167 403.215 171.328 402.986 171.547C402.757 171.76 402.577 172.029 402.447 172.352C402.317 172.674 402.252 173.049 402.252 173.477V178H400.408V169.352H401.845L402.095 170.875H402.181C402.353 170.568 402.567 170.286 402.822 170.031C403.077 169.776 403.369 169.573 403.697 169.422C404.03 169.266 404.395 169.188 404.791 169.188ZM414.577 178.156C413.545 178.156 412.717 177.781 412.092 177.031C411.472 176.276 411.162 175.164 411.162 173.695C411.162 172.211 411.478 171.089 412.108 170.328C412.743 169.568 413.579 169.188 414.616 169.188C415.053 169.188 415.436 169.247 415.764 169.367C416.092 169.482 416.373 169.638 416.608 169.836C416.847 170.034 417.05 170.255 417.217 170.5H417.303C417.277 170.339 417.246 170.107 417.209 169.805C417.178 169.497 417.162 169.214 417.162 168.953V165.844H419.006V178H417.569L417.241 176.82H417.162C417.006 177.07 416.808 177.297 416.569 177.5C416.334 177.698 416.053 177.857 415.725 177.977C415.402 178.096 415.019 178.156 414.577 178.156ZM415.092 176.664C415.879 176.664 416.433 176.438 416.756 175.984C417.079 175.531 417.246 174.852 417.256 173.945V173.703C417.256 172.734 417.1 171.992 416.787 171.477C416.475 170.956 415.905 170.695 415.077 170.695C414.415 170.695 413.91 170.964 413.561 171.5C413.217 172.031 413.045 172.773 413.045 173.727C413.045 174.68 413.217 175.409 413.561 175.914C413.91 176.414 414.42 176.664 415.092 176.664ZM426.122 169.188C426.268 169.188 426.427 169.195 426.598 169.211C426.77 169.227 426.919 169.247 427.044 169.273L426.872 170.992C426.763 170.961 426.627 170.938 426.466 170.922C426.309 170.906 426.169 170.898 426.044 170.898C425.716 170.898 425.403 170.953 425.106 171.062C424.809 171.167 424.546 171.328 424.317 171.547C424.088 171.76 423.908 172.029 423.778 172.352C423.648 172.674 423.583 173.049 423.583 173.477V178H421.739V169.352H423.177L423.427 170.875H423.513C423.684 170.568 423.898 170.286 424.153 170.031C424.408 169.776 424.7 169.573 425.028 169.422C425.361 169.266 425.726 169.188 426.122 169.188ZM432.136 169.188C433.23 169.188 434.055 169.43 434.612 169.914C435.175 170.398 435.456 171.154 435.456 172.18V178H434.152L433.8 176.773H433.737C433.493 177.086 433.24 177.344 432.98 177.547C432.719 177.75 432.417 177.901 432.073 178C431.735 178.104 431.321 178.156 430.831 178.156C430.316 178.156 429.855 178.062 429.448 177.875C429.042 177.682 428.722 177.391 428.487 177C428.253 176.609 428.136 176.115 428.136 175.516C428.136 174.625 428.467 173.956 429.128 173.508C429.795 173.06 430.8 172.812 432.144 172.766L433.644 172.711V172.258C433.644 171.659 433.503 171.232 433.222 170.977C432.946 170.721 432.555 170.594 432.05 170.594C431.618 170.594 431.198 170.656 430.792 170.781C430.386 170.906 429.99 171.06 429.605 171.242L429.011 169.945C429.433 169.721 429.912 169.539 430.448 169.398C430.99 169.258 431.553 169.188 432.136 169.188ZM433.636 173.867L432.519 173.906C431.602 173.938 430.959 174.094 430.589 174.375C430.219 174.656 430.034 175.042 430.034 175.531C430.034 175.958 430.162 176.271 430.417 176.469C430.672 176.661 431.008 176.758 431.425 176.758C432.06 176.758 432.586 176.578 433.003 176.219C433.425 175.854 433.636 175.32 433.636 174.617V173.867ZM440.595 181.844C439.423 181.844 438.525 181.633 437.9 181.211C437.275 180.789 436.962 180.198 436.962 179.438C436.962 178.906 437.129 178.456 437.462 178.086C437.796 177.721 438.272 177.469 438.892 177.328C438.658 177.224 438.455 177.062 438.283 176.844C438.116 176.62 438.033 176.372 438.033 176.102C438.033 175.779 438.124 175.503 438.306 175.273C438.489 175.044 438.762 174.823 439.127 174.609C438.673 174.417 438.309 174.104 438.033 173.672C437.762 173.234 437.627 172.721 437.627 172.133C437.627 171.508 437.759 170.977 438.025 170.539C438.291 170.096 438.679 169.76 439.189 169.531C439.699 169.297 440.317 169.18 441.041 169.18C441.197 169.18 441.366 169.19 441.548 169.211C441.736 169.227 441.908 169.247 442.064 169.273C442.226 169.294 442.348 169.318 442.431 169.344H445.423V170.367L443.955 170.641C444.095 170.839 444.207 171.065 444.291 171.32C444.374 171.57 444.416 171.844 444.416 172.141C444.416 173.036 444.106 173.742 443.486 174.258C442.871 174.768 442.022 175.023 440.939 175.023C440.679 175.013 440.426 174.992 440.181 174.961C439.994 175.076 439.851 175.203 439.752 175.344C439.653 175.479 439.603 175.633 439.603 175.805C439.603 175.945 439.653 176.06 439.752 176.148C439.851 176.232 439.996 176.294 440.189 176.336C440.387 176.378 440.627 176.398 440.908 176.398H442.4C443.348 176.398 444.072 176.599 444.572 177C445.072 177.401 445.322 177.99 445.322 178.766C445.322 179.75 444.916 180.508 444.103 181.039C443.291 181.576 442.121 181.844 440.595 181.844ZM440.666 180.555C441.306 180.555 441.845 180.492 442.283 180.367C442.72 180.242 443.051 180.062 443.275 179.828C443.499 179.599 443.611 179.326 443.611 179.008C443.611 178.727 443.541 178.51 443.4 178.359C443.259 178.208 443.048 178.104 442.767 178.047C442.486 177.99 442.137 177.961 441.72 177.961H440.361C440.022 177.961 439.723 178.013 439.462 178.117C439.202 178.227 438.999 178.383 438.853 178.586C438.712 178.789 438.642 179.034 438.642 179.32C438.642 179.716 438.817 180.021 439.166 180.234C439.52 180.448 440.02 180.555 440.666 180.555ZM441.025 173.82C441.561 173.82 441.96 173.674 442.22 173.383C442.481 173.086 442.611 172.669 442.611 172.133C442.611 171.549 442.476 171.112 442.205 170.82C441.939 170.529 441.543 170.383 441.017 170.383C440.502 170.383 440.108 170.531 439.837 170.828C439.572 171.125 439.439 171.565 439.439 172.148C439.439 172.674 439.572 173.086 439.837 173.383C440.108 173.674 440.504 173.82 441.025 173.82ZM454.748 169.188C455.842 169.188 456.668 169.43 457.225 169.914C457.787 170.398 458.069 171.154 458.069 172.18V178H456.764L456.412 176.773H456.35C456.105 177.086 455.853 177.344 455.592 177.547C455.332 177.75 455.03 177.901 454.686 178C454.347 178.104 453.933 178.156 453.444 178.156C452.928 178.156 452.467 178.062 452.061 177.875C451.655 177.682 451.334 177.391 451.1 177C450.866 176.609 450.748 176.115 450.748 175.516C450.748 174.625 451.079 173.956 451.741 173.508C452.407 173.06 453.412 172.812 454.756 172.766L456.256 172.711V172.258C456.256 171.659 456.116 171.232 455.834 170.977C455.558 170.721 455.168 170.594 454.662 170.594C454.23 170.594 453.811 170.656 453.405 170.781C452.998 170.906 452.603 171.06 452.217 171.242L451.623 169.945C452.045 169.721 452.524 169.539 453.061 169.398C453.603 169.258 454.165 169.188 454.748 169.188ZM456.248 173.867L455.131 173.906C454.215 173.938 453.571 174.094 453.202 174.375C452.832 174.656 452.647 175.042 452.647 175.531C452.647 175.958 452.774 176.271 453.03 176.469C453.285 176.661 453.621 176.758 454.037 176.758C454.673 176.758 455.199 176.578 455.616 176.219C456.037 175.854 456.248 175.32 456.248 174.617V173.867ZM465.247 169.188C466.221 169.188 466.979 169.44 467.52 169.945C468.067 170.445 468.341 171.25 468.341 172.359V178H466.505V172.703C466.505 172.031 466.367 171.529 466.091 171.195C465.815 170.857 465.388 170.688 464.809 170.688C463.971 170.688 463.388 170.945 463.059 171.461C462.736 171.977 462.575 172.724 462.575 173.703V178H460.739V169.352H462.169L462.427 170.523H462.528C462.716 170.221 462.947 169.974 463.223 169.781C463.505 169.583 463.817 169.435 464.161 169.336C464.51 169.237 464.872 169.188 465.247 169.188ZM473.917 178.156C472.886 178.156 472.058 177.781 471.433 177.031C470.813 176.276 470.503 175.164 470.503 173.695C470.503 172.211 470.818 171.089 471.448 170.328C472.084 169.568 472.92 169.188 473.956 169.188C474.394 169.188 474.777 169.247 475.105 169.367C475.433 169.482 475.714 169.638 475.948 169.836C476.188 170.034 476.391 170.255 476.558 170.5H476.644C476.618 170.339 476.586 170.107 476.55 169.805C476.519 169.497 476.503 169.214 476.503 168.953V165.844H478.347V178H476.909L476.581 176.82H476.503C476.347 177.07 476.149 177.297 475.909 177.5C475.675 177.698 475.394 177.857 475.066 177.977C474.743 178.096 474.36 178.156 473.917 178.156ZM474.433 176.664C475.219 176.664 475.774 176.438 476.097 175.984C476.42 175.531 476.586 174.852 476.597 173.945V173.703C476.597 172.734 476.441 171.992 476.128 171.477C475.816 170.956 475.245 170.695 474.417 170.695C473.756 170.695 473.251 170.964 472.902 171.5C472.558 172.031 472.386 172.773 472.386 173.727C472.386 174.68 472.558 175.409 472.902 175.914C473.251 176.414 473.761 176.664 474.433 176.664ZM488.242 178.156C487.211 178.156 486.383 177.781 485.758 177.031C485.138 176.276 484.828 175.164 484.828 173.695C484.828 172.211 485.143 171.089 485.773 170.328C486.409 169.568 487.245 169.188 488.281 169.188C488.719 169.188 489.102 169.247 489.43 169.367C489.758 169.482 490.039 169.638 490.273 169.836C490.513 170.034 490.716 170.255 490.883 170.5H490.969C490.943 170.339 490.911 170.107 490.875 169.805C490.844 169.497 490.828 169.214 490.828 168.953V165.844H492.672V178H491.234L490.906 176.82H490.828C490.672 177.07 490.474 177.297 490.234 177.5C490 177.698 489.719 177.857 489.391 177.977C489.068 178.096 488.685 178.156 488.242 178.156ZM488.758 176.664C489.544 176.664 490.099 176.438 490.422 175.984C490.745 175.531 490.911 174.852 490.922 173.945V173.703C490.922 172.734 490.766 171.992 490.453 171.477C490.141 170.956 489.57 170.695 488.742 170.695C488.081 170.695 487.576 170.964 487.227 171.5C486.883 172.031 486.711 172.773 486.711 173.727C486.711 174.68 486.883 175.409 487.227 175.914C487.576 176.414 488.086 176.664 488.758 176.664ZM499.787 169.188C499.933 169.188 500.092 169.195 500.264 169.211C500.436 169.227 500.584 169.247 500.709 169.273L500.537 170.992C500.428 170.961 500.293 170.938 500.131 170.922C499.975 170.906 499.834 170.898 499.709 170.898C499.381 170.898 499.069 170.953 498.772 171.062C498.475 171.167 498.212 171.328 497.983 171.547C497.754 171.76 497.574 172.029 497.444 172.352C497.314 172.674 497.248 173.049 497.248 173.477V178H495.405V169.352H496.842L497.092 170.875H497.178C497.35 170.568 497.564 170.286 497.819 170.031C498.074 169.776 498.366 169.573 498.694 169.422C499.027 169.266 499.392 169.188 499.787 169.188ZM510.067 173.656C510.067 174.375 509.973 175.013 509.786 175.57C509.598 176.128 509.325 176.599 508.966 176.984C508.606 177.365 508.174 177.656 507.669 177.859C507.164 178.057 506.593 178.156 505.958 178.156C505.364 178.156 504.82 178.057 504.325 177.859C503.83 177.656 503.401 177.365 503.036 176.984C502.677 176.599 502.398 176.128 502.2 175.57C502.002 175.013 501.903 174.375 501.903 173.656C501.903 172.703 502.067 171.896 502.395 171.234C502.729 170.568 503.203 170.06 503.817 169.711C504.432 169.362 505.164 169.188 506.013 169.188C506.809 169.188 507.513 169.362 508.122 169.711C508.731 170.06 509.208 170.568 509.552 171.234C509.895 171.901 510.067 172.708 510.067 173.656ZM503.794 173.656C503.794 174.286 503.869 174.826 504.02 175.273C504.177 175.721 504.416 176.065 504.739 176.305C505.062 176.539 505.479 176.656 505.989 176.656C506.499 176.656 506.916 176.539 507.239 176.305C507.562 176.065 507.799 175.721 507.95 175.273C508.101 174.826 508.177 174.286 508.177 173.656C508.177 173.026 508.101 172.492 507.95 172.055C507.799 171.612 507.562 171.276 507.239 171.047C506.916 170.812 506.497 170.695 505.981 170.695C505.221 170.695 504.666 170.951 504.317 171.461C503.968 171.971 503.794 172.703 503.794 173.656ZM516.714 169.188C517.74 169.188 518.563 169.562 519.183 170.312C519.808 171.062 520.12 172.177 520.12 173.656C520.12 174.635 519.974 175.461 519.683 176.133C519.396 176.799 518.993 177.305 518.472 177.648C517.956 177.987 517.355 178.156 516.667 178.156C516.23 178.156 515.849 178.099 515.527 177.984C515.204 177.87 514.928 177.721 514.698 177.539C514.469 177.352 514.277 177.148 514.12 176.93H514.011C514.037 177.138 514.06 177.37 514.081 177.625C514.107 177.875 514.12 178.104 514.12 178.312V181.836H512.277V169.352H513.777L514.034 170.547H514.12C514.282 170.302 514.477 170.076 514.706 169.867C514.941 169.659 515.222 169.495 515.55 169.375C515.883 169.25 516.271 169.188 516.714 169.188ZM516.222 170.688C515.717 170.688 515.31 170.789 515.003 170.992C514.701 171.19 514.48 171.49 514.339 171.891C514.204 172.292 514.131 172.794 514.12 173.398V173.656C514.12 174.297 514.185 174.841 514.316 175.289C514.451 175.732 514.672 176.07 514.98 176.305C515.292 176.534 515.714 176.648 516.245 176.648C516.693 176.648 517.063 176.526 517.355 176.281C517.652 176.036 517.873 175.688 518.019 175.234C518.165 174.781 518.237 174.247 518.237 173.633C518.237 172.701 518.071 171.977 517.737 171.461C517.409 170.945 516.904 170.688 516.222 170.688Z" fill="#333D47"/>
<path d="M310.11 202.289C310.11 201.97 310.187 201.744 310.342 201.612C310.497 201.476 310.686 201.407 310.909 201.407C311.142 201.407 311.338 201.476 311.497 201.612C311.657 201.744 311.737 201.97 311.737 202.289C311.737 202.604 311.657 202.834 311.497 202.979C311.338 203.121 311.142 203.191 310.909 203.191C310.686 203.191 310.497 203.121 310.342 202.979C310.187 202.834 310.11 202.604 310.11 202.289ZM315.842 199.165L313.252 195.508H314.55L316.526 198.393L318.495 195.508H319.78L317.189 199.165L319.923 203H318.625L316.526 199.944L314.414 203H313.129L315.842 199.165ZM322.628 203H321.486V192.363H322.628V203ZM329.974 200.949C329.974 201.428 329.853 201.831 329.612 202.159C329.375 202.483 329.033 202.727 328.586 202.891C328.144 203.055 327.616 203.137 327 203.137C326.476 203.137 326.023 203.096 325.64 203.014C325.257 202.932 324.922 202.815 324.635 202.665V201.619C324.941 201.77 325.305 201.906 325.729 202.029C326.153 202.152 326.586 202.214 327.028 202.214C327.675 202.214 328.144 202.109 328.436 201.899C328.728 201.69 328.873 201.405 328.873 201.045C328.873 200.84 328.814 200.66 328.696 200.505C328.582 200.345 328.388 200.193 328.115 200.047C327.841 199.896 327.463 199.732 326.98 199.555C326.501 199.372 326.087 199.192 325.736 199.015C325.389 198.832 325.121 198.611 324.929 198.352C324.742 198.092 324.649 197.755 324.649 197.34C324.649 196.706 324.904 196.221 325.414 195.884C325.929 195.542 326.604 195.371 327.438 195.371C327.889 195.371 328.311 195.417 328.703 195.508C329.099 195.594 329.468 195.713 329.81 195.863L329.427 196.772C329.117 196.64 328.787 196.529 328.436 196.438C328.085 196.346 327.727 196.301 327.363 196.301C326.839 196.301 326.435 196.387 326.153 196.561C325.875 196.734 325.736 196.971 325.736 197.271C325.736 197.504 325.8 197.695 325.927 197.846C326.059 197.996 326.269 198.137 326.556 198.27C326.843 198.402 327.221 198.557 327.691 198.734C328.16 198.908 328.566 199.088 328.908 199.274C329.249 199.457 329.511 199.68 329.694 199.944C329.881 200.204 329.974 200.539 329.974 200.949ZM333.683 199.165L331.093 195.508H332.391L334.367 198.393L336.336 195.508H337.621L335.03 199.165L337.764 203H336.466L334.367 199.944L332.255 203H330.97L333.683 199.165ZM340.626 201.373L340.715 201.53C340.633 201.863 340.528 202.218 340.401 202.597C340.278 202.975 340.141 203.353 339.99 203.731C339.845 204.114 339.696 204.472 339.546 204.805H338.698C338.794 204.44 338.888 204.055 338.979 203.649C339.07 203.248 339.152 202.852 339.225 202.46C339.302 202.063 339.364 201.701 339.409 201.373H340.626ZM346.616 202.289C346.616 201.97 346.694 201.744 346.849 201.612C347.004 201.476 347.193 201.407 347.416 201.407C347.648 201.407 347.844 201.476 348.004 201.612C348.163 201.744 348.243 201.97 348.243 202.289C348.243 202.604 348.163 202.834 348.004 202.979C347.844 203.121 347.648 203.191 347.416 203.191C347.193 203.191 347.004 203.121 346.849 202.979C346.694 202.834 346.616 202.604 346.616 202.289ZM352.349 199.165L349.758 195.508H351.057L353.033 198.393L355.001 195.508H356.287L353.696 199.165L356.43 203H355.131L353.033 199.944L350.92 203H349.635L352.349 199.165ZM359.135 203H357.993V192.363H359.135V203ZM366.481 200.949C366.481 201.428 366.36 201.831 366.118 202.159C365.881 202.483 365.54 202.727 365.093 202.891C364.651 203.055 364.122 203.137 363.507 203.137C362.983 203.137 362.529 203.096 362.147 203.014C361.764 202.932 361.429 202.815 361.142 202.665V201.619C361.447 201.77 361.812 201.906 362.236 202.029C362.659 202.152 363.092 202.214 363.534 202.214C364.181 202.214 364.651 202.109 364.943 201.899C365.234 201.69 365.38 201.405 365.38 201.045C365.38 200.84 365.321 200.66 365.202 200.505C365.088 200.345 364.895 200.193 364.621 200.047C364.348 199.896 363.97 199.732 363.487 199.555C363.008 199.372 362.593 199.192 362.242 199.015C361.896 198.832 361.627 198.611 361.436 198.352C361.249 198.092 361.155 197.755 361.155 197.34C361.155 196.706 361.411 196.221 361.921 195.884C362.436 195.542 363.111 195.371 363.945 195.371C364.396 195.371 364.817 195.417 365.209 195.508C365.606 195.594 365.975 195.713 366.317 195.863L365.934 196.772C365.624 196.64 365.293 196.529 364.943 196.438C364.592 196.346 364.234 196.301 363.869 196.301C363.345 196.301 362.942 196.387 362.659 196.561C362.381 196.734 362.242 196.971 362.242 197.271C362.242 197.504 362.306 197.695 362.434 197.846C362.566 197.996 362.776 198.137 363.063 198.27C363.35 198.402 363.728 198.557 364.197 198.734C364.667 198.908 365.072 199.088 365.414 199.274C365.756 199.457 366.018 199.68 366.2 199.944C366.387 200.204 366.481 200.539 366.481 200.949ZM369.705 201.373L369.794 201.53C369.712 201.863 369.607 202.218 369.479 202.597C369.356 202.975 369.219 203.353 369.069 203.731C368.923 204.114 368.775 204.472 368.625 204.805H367.777C367.873 204.44 367.966 204.055 368.057 203.649C368.148 203.248 368.23 202.852 368.303 202.46C368.381 202.063 368.442 201.701 368.488 201.373H369.705ZM382.326 199.24C382.326 199.855 382.246 200.405 382.086 200.888C381.927 201.371 381.697 201.779 381.396 202.111C381.095 202.444 380.731 202.699 380.302 202.877C379.878 203.05 379.398 203.137 378.86 203.137C378.358 203.137 377.898 203.05 377.479 202.877C377.064 202.699 376.704 202.444 376.399 202.111C376.098 201.779 375.863 201.371 375.695 200.888C375.531 200.405 375.449 199.855 375.449 199.24C375.449 198.42 375.588 197.723 375.866 197.148C376.144 196.57 376.54 196.13 377.055 195.829C377.575 195.524 378.192 195.371 378.908 195.371C379.591 195.371 380.188 195.524 380.699 195.829C381.214 196.134 381.612 196.576 381.895 197.155C382.182 197.729 382.326 198.424 382.326 199.24ZM376.624 199.24C376.624 199.842 376.704 200.364 376.864 200.806C377.023 201.248 377.269 201.59 377.602 201.831C377.935 202.073 378.363 202.193 378.887 202.193C379.407 202.193 379.833 202.073 380.165 201.831C380.503 201.59 380.751 201.248 380.911 200.806C381.07 200.364 381.15 199.842 381.15 199.24C381.15 198.643 381.07 198.128 380.911 197.695C380.751 197.258 380.505 196.921 380.172 196.684C379.84 196.447 379.409 196.328 378.88 196.328C378.101 196.328 377.529 196.586 377.164 197.101C376.804 197.616 376.624 198.329 376.624 199.24ZM387.792 195.371C387.942 195.371 388.099 195.38 388.263 195.398C388.428 195.412 388.573 195.433 388.701 195.46L388.557 196.513C388.434 196.481 388.298 196.456 388.147 196.438C387.997 196.419 387.856 196.41 387.723 196.41C387.423 196.41 387.138 196.472 386.869 196.595C386.605 196.713 386.372 196.886 386.172 197.114C385.971 197.338 385.814 197.609 385.7 197.928C385.586 198.242 385.529 198.593 385.529 198.98V203H384.388V195.508H385.331L385.454 196.889H385.502C385.657 196.611 385.844 196.358 386.062 196.13C386.281 195.897 386.534 195.713 386.821 195.576C387.113 195.439 387.436 195.371 387.792 195.371ZM393.782 202.289C393.782 201.97 393.859 201.744 394.014 201.612C394.169 201.476 394.358 201.407 394.582 201.407C394.814 201.407 395.01 201.476 395.17 201.612C395.329 201.744 395.409 201.97 395.409 202.289C395.409 202.604 395.329 202.834 395.17 202.979C395.01 203.121 394.814 203.191 394.582 203.191C394.358 203.191 394.169 203.121 394.014 202.979C393.859 202.834 393.782 202.604 393.782 202.289ZM400.731 203.137C400.057 203.137 399.462 202.998 398.947 202.72C398.432 202.442 398.031 202.018 397.744 201.448C397.457 200.879 397.313 200.161 397.313 199.295C397.313 198.388 397.464 197.647 397.765 197.073C398.07 196.494 398.489 196.066 399.022 195.788C399.556 195.51 400.162 195.371 400.841 195.371C401.215 195.371 401.575 195.41 401.921 195.487C402.272 195.56 402.559 195.654 402.782 195.768L402.44 196.718C402.213 196.627 401.948 196.545 401.647 196.472C401.351 196.399 401.073 196.362 400.813 196.362C400.294 196.362 399.861 196.474 399.515 196.697C399.173 196.921 398.915 197.249 398.742 197.682C398.574 198.115 398.489 198.648 398.489 199.281C398.489 199.887 398.571 200.405 398.735 200.833C398.904 201.261 399.152 201.59 399.48 201.817C399.813 202.041 400.228 202.152 400.725 202.152C401.121 202.152 401.479 202.111 401.798 202.029C402.117 201.943 402.406 201.842 402.666 201.729V202.74C402.415 202.868 402.135 202.966 401.825 203.034C401.52 203.103 401.155 203.137 400.731 203.137ZM409.39 200.949C409.39 201.428 409.269 201.831 409.028 202.159C408.791 202.483 408.449 202.727 408.002 202.891C407.56 203.055 407.032 203.137 406.416 203.137C405.892 203.137 405.439 203.096 405.056 203.014C404.673 202.932 404.338 202.815 404.051 202.665V201.619C404.357 201.77 404.721 201.906 405.145 202.029C405.569 202.152 406.002 202.214 406.444 202.214C407.091 202.214 407.56 202.109 407.852 201.899C408.144 201.69 408.289 201.405 408.289 201.045C408.289 200.84 408.23 200.66 408.112 200.505C407.998 200.345 407.804 200.193 407.531 200.047C407.257 199.896 406.879 199.732 406.396 199.555C405.917 199.372 405.503 199.192 405.152 199.015C404.805 198.832 404.537 198.611 404.345 198.352C404.158 198.092 404.065 197.755 404.065 197.34C404.065 196.706 404.32 196.221 404.83 195.884C405.345 195.542 406.02 195.371 406.854 195.371C407.305 195.371 407.727 195.417 408.119 195.508C408.515 195.594 408.884 195.713 409.226 195.863L408.843 196.772C408.533 196.64 408.203 196.529 407.852 196.438C407.501 196.346 407.143 196.301 406.779 196.301C406.255 196.301 405.851 196.387 405.569 196.561C405.291 196.734 405.152 196.971 405.152 197.271C405.152 197.504 405.216 197.695 405.343 197.846C405.475 197.996 405.685 198.137 405.972 198.27C406.259 198.402 406.637 198.557 407.107 198.734C407.576 198.908 407.982 199.088 408.324 199.274C408.665 199.457 408.927 199.68 409.11 199.944C409.297 200.204 409.39 200.539 409.39 200.949ZM412.963 203L410.119 195.508H411.336L412.983 200.04C413.097 200.35 413.213 200.692 413.332 201.065C413.45 201.439 413.532 201.74 413.578 201.968H413.626C413.68 201.74 413.772 201.439 413.899 201.065C414.027 200.687 414.143 200.345 414.248 200.04L415.895 195.508H417.112L414.262 203H412.963ZM425.488 196.396H423.622V203H422.487V196.396H421.161V195.85L422.487 195.474V194.975C422.487 194.346 422.58 193.835 422.767 193.443C422.954 193.047 423.225 192.755 423.581 192.568C423.936 192.382 424.369 192.288 424.879 192.288C425.167 192.288 425.429 192.313 425.666 192.363C425.907 192.413 426.119 192.47 426.301 192.534L426.007 193.43C425.852 193.38 425.677 193.334 425.481 193.293C425.29 193.247 425.094 193.225 424.893 193.225C424.46 193.225 424.139 193.366 423.929 193.648C423.724 193.926 423.622 194.364 423.622 194.961V195.508H425.488V196.396ZM428.104 195.508V203H426.969V195.508H428.104ZM427.55 192.705C427.737 192.705 427.896 192.767 428.028 192.89C428.165 193.008 428.233 193.195 428.233 193.45C428.233 193.701 428.165 193.888 428.028 194.011C427.896 194.134 427.737 194.195 427.55 194.195C427.354 194.195 427.19 194.134 427.058 194.011C426.93 193.888 426.866 193.701 426.866 193.45C426.866 193.195 426.93 193.008 427.058 192.89C427.19 192.767 427.354 192.705 427.55 192.705ZM431.751 203H430.61V192.363H431.751V203ZM437.136 195.371C437.774 195.371 438.32 195.512 438.776 195.795C439.232 196.077 439.581 196.474 439.822 196.984C440.064 197.49 440.184 198.083 440.184 198.762V199.466H435.01C435.023 200.345 435.242 201.015 435.666 201.476C436.09 201.936 436.687 202.166 437.457 202.166C437.931 202.166 438.35 202.123 438.715 202.036C439.079 201.95 439.457 201.822 439.849 201.653V202.651C439.471 202.82 439.095 202.943 438.721 203.021C438.352 203.098 437.915 203.137 437.409 203.137C436.689 203.137 436.06 202.991 435.522 202.699C434.989 202.403 434.574 201.97 434.278 201.4C433.982 200.831 433.834 200.133 433.834 199.309C433.834 198.502 433.968 197.805 434.237 197.217C434.511 196.624 434.893 196.169 435.386 195.85C435.882 195.531 436.466 195.371 437.136 195.371ZM437.122 196.301C436.516 196.301 436.033 196.499 435.673 196.896C435.313 197.292 435.098 197.846 435.03 198.557H438.995C438.99 198.11 438.92 197.718 438.783 197.381C438.651 197.039 438.448 196.775 438.175 196.588C437.901 196.396 437.55 196.301 437.122 196.301Z" fill="#5C646C"/>
<rect x="32.5" y="32.5" width="685" height="239" rx="7.5" stroke="#D6D8DA" stroke-linejoin="round"/>
<rect width="686" height="56" transform="translate(32 296)" fill="white"/>
<g opacity="0.5">
<rect x="32" y="296" width="686" height="56" rx="8" fill="#D31145"/>
<path d="M313.394 326.891C313.394 327.568 313.227 328.151 312.894 328.641C312.566 329.13 312.092 329.505 311.472 329.766C310.857 330.026 310.123 330.156 309.269 330.156C308.852 330.156 308.454 330.133 308.073 330.086C307.693 330.039 307.334 329.971 306.995 329.883C306.662 329.789 306.357 329.677 306.081 329.547V327.781C306.545 327.984 307.063 328.169 307.636 328.336C308.209 328.497 308.792 328.578 309.386 328.578C309.87 328.578 310.271 328.516 310.589 328.391C310.912 328.26 311.152 328.078 311.308 327.844C311.464 327.604 311.542 327.326 311.542 327.008C311.542 326.669 311.451 326.383 311.269 326.148C311.086 325.914 310.81 325.701 310.441 325.508C310.076 325.31 309.618 325.099 309.066 324.875C308.691 324.724 308.331 324.552 307.988 324.359C307.649 324.167 307.347 323.94 307.081 323.68C306.816 323.419 306.605 323.112 306.448 322.758C306.297 322.398 306.222 321.977 306.222 321.492C306.222 320.846 306.376 320.294 306.683 319.836C306.995 319.378 307.433 319.026 307.995 318.781C308.563 318.536 309.224 318.414 309.98 318.414C310.579 318.414 311.141 318.477 311.667 318.602C312.198 318.727 312.719 318.904 313.23 319.133L312.636 320.641C312.167 320.448 311.711 320.294 311.269 320.18C310.831 320.065 310.383 320.008 309.925 320.008C309.529 320.008 309.193 320.068 308.917 320.188C308.641 320.307 308.43 320.477 308.284 320.695C308.144 320.909 308.073 321.164 308.073 321.461C308.073 321.794 308.154 322.076 308.316 322.305C308.482 322.529 308.738 322.734 309.081 322.922C309.43 323.109 309.878 323.318 310.425 323.547C311.055 323.807 311.589 324.081 312.027 324.367C312.469 324.654 312.808 324.997 313.042 325.398C313.277 325.794 313.394 326.292 313.394 326.891ZM323.048 321.352V330H321.603L321.353 328.836H321.252C321.069 329.133 320.838 329.38 320.556 329.578C320.275 329.771 319.963 329.914 319.619 330.008C319.275 330.107 318.913 330.156 318.533 330.156C317.882 330.156 317.324 330.047 316.861 329.828C316.403 329.604 316.051 329.26 315.806 328.797C315.561 328.333 315.439 327.734 315.439 327V321.352H317.283V326.656C317.283 327.328 317.418 327.831 317.689 328.164C317.965 328.497 318.392 328.664 318.97 328.664C319.528 328.664 319.97 328.549 320.298 328.32C320.627 328.091 320.858 327.753 320.994 327.305C321.134 326.857 321.205 326.307 321.205 325.656V321.352H323.048ZM327.617 317.844V320.773C327.617 321.112 327.607 321.445 327.586 321.773C327.57 322.096 327.555 322.349 327.539 322.531H327.617C327.852 322.156 328.177 321.841 328.594 321.586C329.016 321.326 329.555 321.195 330.211 321.195C331.237 321.195 332.063 321.573 332.688 322.328C333.313 323.078 333.625 324.19 333.625 325.664C333.625 326.643 333.482 327.466 333.195 328.133C332.909 328.799 332.505 329.305 331.984 329.648C331.469 329.987 330.862 330.156 330.164 330.156C329.508 330.156 328.977 330.036 328.57 329.797C328.169 329.552 327.854 329.268 327.625 328.945H327.492L327.156 330H325.781V317.844H327.617ZM329.727 322.688C329.206 322.688 328.792 322.792 328.484 323C328.182 323.208 327.964 323.521 327.828 323.938C327.693 324.349 327.622 324.872 327.617 325.508V325.672C327.617 326.635 327.768 327.372 328.07 327.883C328.378 328.393 328.935 328.648 329.742 328.648C330.383 328.648 330.875 328.391 331.219 327.875C331.563 327.354 331.734 326.609 331.734 325.641C331.734 324.661 331.563 323.924 331.219 323.43C330.88 322.935 330.383 322.688 329.727 322.688ZM345.623 321.188C346.592 321.188 347.321 321.438 347.811 321.938C348.306 322.438 348.553 323.24 348.553 324.344V330H346.717V324.672C346.717 324.016 346.59 323.521 346.334 323.188C346.079 322.854 345.691 322.688 345.17 322.688C344.441 322.688 343.915 322.922 343.592 323.391C343.274 323.854 343.116 324.529 343.116 325.414V330H341.28V324.672C341.28 324.234 341.222 323.87 341.108 323.578C340.998 323.281 340.829 323.06 340.6 322.914C340.371 322.763 340.082 322.688 339.733 322.688C339.228 322.688 338.824 322.802 338.522 323.031C338.225 323.26 338.011 323.599 337.881 324.047C337.751 324.49 337.686 325.034 337.686 325.68V330H335.85V321.352H337.28L337.538 322.516H337.639C337.816 322.214 338.035 321.966 338.295 321.773C338.561 321.576 338.855 321.43 339.178 321.336C339.501 321.237 339.837 321.188 340.186 321.188C340.832 321.188 341.376 321.302 341.819 321.531C342.261 321.755 342.592 322.099 342.811 322.562H342.952C343.222 322.094 343.6 321.747 344.084 321.523C344.569 321.299 345.082 321.188 345.623 321.188ZM353.052 321.352V330H351.216V321.352H353.052ZM352.145 318.039C352.427 318.039 352.669 318.115 352.872 318.266C353.08 318.417 353.184 318.677 353.184 319.047C353.184 319.411 353.08 319.672 352.872 319.828C352.669 319.979 352.427 320.055 352.145 320.055C351.854 320.055 351.606 319.979 351.403 319.828C351.205 319.672 351.106 319.411 351.106 319.047C351.106 318.677 351.205 318.417 351.403 318.266C351.606 318.115 351.854 318.039 352.145 318.039ZM359.003 328.672C359.243 328.672 359.48 328.651 359.714 328.609C359.948 328.562 360.162 328.508 360.355 328.445V329.836C360.152 329.924 359.889 330 359.566 330.062C359.243 330.125 358.907 330.156 358.558 330.156C358.068 330.156 357.628 330.076 357.238 329.914C356.847 329.747 356.537 329.464 356.308 329.062C356.079 328.661 355.964 328.107 355.964 327.398V322.75H354.784V321.93L356.05 321.281L356.652 319.43H357.808V321.352H360.284V322.75H357.808V327.375C357.808 327.812 357.917 328.138 358.136 328.352C358.355 328.565 358.644 328.672 359.003 328.672ZM369.375 330.156C368.344 330.156 367.516 329.781 366.891 329.031C366.271 328.276 365.961 327.164 365.961 325.695C365.961 324.211 366.276 323.089 366.906 322.328C367.542 321.568 368.378 321.188 369.414 321.188C369.852 321.188 370.234 321.247 370.563 321.367C370.891 321.482 371.172 321.638 371.406 321.836C371.646 322.034 371.849 322.255 372.016 322.5H372.102C372.076 322.339 372.044 322.107 372.008 321.805C371.977 321.497 371.961 321.214 371.961 320.953V317.844H373.805V330H372.367L372.039 328.82H371.961C371.805 329.07 371.607 329.297 371.367 329.5C371.133 329.698 370.852 329.857 370.523 329.977C370.201 330.096 369.818 330.156 369.375 330.156ZM369.891 328.664C370.677 328.664 371.232 328.438 371.555 327.984C371.878 327.531 372.044 326.852 372.055 325.945V325.703C372.055 324.734 371.898 323.992 371.586 323.477C371.273 322.956 370.703 322.695 369.875 322.695C369.214 322.695 368.708 322.964 368.359 323.5C368.016 324.031 367.844 324.773 367.844 325.727C367.844 326.68 368.016 327.409 368.359 327.914C368.708 328.414 369.219 328.664 369.891 328.664ZM384.194 325.656C384.194 326.375 384.1 327.013 383.913 327.57C383.725 328.128 383.452 328.599 383.092 328.984C382.733 329.365 382.301 329.656 381.795 329.859C381.29 330.057 380.72 330.156 380.084 330.156C379.491 330.156 378.946 330.057 378.452 329.859C377.957 329.656 377.527 329.365 377.163 328.984C376.803 328.599 376.524 328.128 376.327 327.57C376.129 327.013 376.03 326.375 376.03 325.656C376.03 324.703 376.194 323.896 376.522 323.234C376.855 322.568 377.329 322.06 377.944 321.711C378.558 321.362 379.29 321.188 380.139 321.188C380.936 321.188 381.639 321.362 382.248 321.711C382.858 322.06 383.334 322.568 383.678 323.234C384.022 323.901 384.194 324.708 384.194 325.656ZM377.92 325.656C377.92 326.286 377.996 326.826 378.147 327.273C378.303 327.721 378.543 328.065 378.866 328.305C379.189 328.539 379.605 328.656 380.116 328.656C380.626 328.656 381.043 328.539 381.366 328.305C381.689 328.065 381.926 327.721 382.077 327.273C382.228 326.826 382.303 326.286 382.303 325.656C382.303 325.026 382.228 324.492 382.077 324.055C381.926 323.612 381.689 323.276 381.366 323.047C381.043 322.812 380.623 322.695 380.108 322.695C379.347 322.695 378.793 322.951 378.444 323.461C378.095 323.971 377.92 324.703 377.92 325.656ZM389.888 330.156C389.07 330.156 388.361 329.997 387.763 329.68C387.164 329.362 386.703 328.875 386.38 328.219C386.057 327.562 385.895 326.729 385.895 325.719C385.895 324.667 386.072 323.807 386.427 323.141C386.781 322.474 387.27 321.982 387.895 321.664C388.526 321.346 389.247 321.188 390.059 321.188C390.575 321.188 391.041 321.24 391.458 321.344C391.88 321.443 392.236 321.565 392.528 321.711L391.981 323.18C391.664 323.049 391.338 322.94 391.005 322.852C390.671 322.763 390.351 322.719 390.044 322.719C389.539 322.719 389.117 322.831 388.778 323.055C388.445 323.279 388.195 323.612 388.028 324.055C387.867 324.497 387.786 325.047 387.786 325.703C387.786 326.339 387.869 326.875 388.036 327.312C388.203 327.745 388.45 328.073 388.778 328.297C389.106 328.516 389.51 328.625 389.989 328.625C390.463 328.625 390.888 328.568 391.263 328.453C391.638 328.339 391.992 328.19 392.325 328.008V329.602C391.997 329.789 391.645 329.927 391.27 330.016C390.895 330.109 390.434 330.156 389.888 330.156ZM401.995 321.352V330H400.55L400.3 328.836H400.198C400.016 329.133 399.784 329.38 399.503 329.578C399.222 329.771 398.909 329.914 398.566 330.008C398.222 330.107 397.86 330.156 397.48 330.156C396.829 330.156 396.271 330.047 395.808 329.828C395.349 329.604 394.998 329.26 394.753 328.797C394.508 328.333 394.386 327.734 394.386 327V321.352H396.23V326.656C396.23 327.328 396.365 327.831 396.636 328.164C396.912 328.497 397.339 328.664 397.917 328.664C398.474 328.664 398.917 328.549 399.245 328.32C399.573 328.091 399.805 327.753 399.941 327.305C400.081 326.857 400.152 326.307 400.152 325.656V321.352H401.995ZM414.502 321.188C415.47 321.188 416.199 321.438 416.689 321.938C417.184 322.438 417.431 323.24 417.431 324.344V330H415.595V324.672C415.595 324.016 415.468 323.521 415.213 323.188C414.957 322.854 414.569 322.688 414.048 322.688C413.319 322.688 412.793 322.922 412.47 323.391C412.153 323.854 411.994 324.529 411.994 325.414V330H410.158V324.672C410.158 324.234 410.101 323.87 409.986 323.578C409.877 323.281 409.707 323.06 409.478 322.914C409.249 322.763 408.96 322.688 408.611 322.688C408.106 322.688 407.702 322.802 407.4 323.031C407.103 323.26 406.89 323.599 406.759 324.047C406.629 324.49 406.564 325.034 406.564 325.68V330H404.728V321.352H406.158L406.416 322.516H406.517C406.694 322.214 406.913 321.966 407.173 321.773C407.439 321.576 407.733 321.43 408.056 321.336C408.379 321.237 408.715 321.188 409.064 321.188C409.71 321.188 410.254 321.302 410.697 321.531C411.14 321.755 411.47 322.099 411.689 322.562H411.83C412.101 322.094 412.478 321.747 412.963 321.523C413.447 321.299 413.96 321.188 414.502 321.188ZM423.539 321.188C424.31 321.188 424.971 321.346 425.523 321.664C426.076 321.982 426.5 322.432 426.797 323.016C427.094 323.599 427.242 324.297 427.242 325.109V326.094H421.469C421.49 326.932 421.714 327.578 422.141 328.031C422.573 328.484 423.177 328.711 423.953 328.711C424.505 328.711 425 328.659 425.438 328.555C425.88 328.445 426.336 328.286 426.805 328.078V329.57C426.372 329.773 425.932 329.922 425.484 330.016C425.036 330.109 424.5 330.156 423.875 330.156C423.026 330.156 422.279 329.992 421.633 329.664C420.992 329.331 420.49 328.836 420.125 328.18C419.766 327.523 419.586 326.708 419.586 325.734C419.586 324.766 419.75 323.943 420.078 323.266C420.406 322.589 420.867 322.073 421.461 321.719C422.055 321.365 422.747 321.188 423.539 321.188ZM423.539 322.57C422.961 322.57 422.492 322.758 422.133 323.133C421.779 323.508 421.57 324.057 421.508 324.781H425.445C425.44 324.349 425.367 323.966 425.227 323.633C425.091 323.299 424.883 323.039 424.602 322.852C424.326 322.664 423.971 322.57 423.539 322.57ZM433.92 321.188C434.894 321.188 435.652 321.44 436.194 321.945C436.741 322.445 437.014 323.25 437.014 324.359V330H435.178V324.703C435.178 324.031 435.04 323.529 434.764 323.195C434.488 322.857 434.061 322.688 433.483 322.688C432.644 322.688 432.061 322.945 431.733 323.461C431.41 323.977 431.248 324.724 431.248 325.703V330H429.413V321.352H430.842L431.1 322.523H431.202C431.389 322.221 431.621 321.974 431.897 321.781C432.178 321.583 432.491 321.435 432.834 321.336C433.183 321.237 433.545 321.188 433.92 321.188ZM442.903 328.672C443.143 328.672 443.38 328.651 443.614 328.609C443.848 328.562 444.062 328.508 444.255 328.445V329.836C444.052 329.924 443.789 330 443.466 330.062C443.143 330.125 442.807 330.156 442.458 330.156C441.968 330.156 441.528 330.076 441.137 329.914C440.747 329.747 440.437 329.464 440.208 329.062C439.979 328.661 439.864 328.107 439.864 327.398V322.75H438.684V321.93L439.95 321.281L440.552 319.43H441.708V321.352H444.184V322.75H441.708V327.375C441.708 327.812 441.817 328.138 442.036 328.352C442.255 328.565 442.544 328.672 442.903 328.672Z" fill="white"/>
</g>
</g>
<defs>
<clipPath id="clip0_6_16814">
<rect width="750" height="384" rx="16" fill="white"/>
</clipPath>
</defs>
</svg>
